<svg width="20" height="20" viewBox="0 0 20 20" fill="none" xmlns="http://www.w3.org/2000/svg">
<g id="scalpel 1" clip-path="url(#clip0_1338_6067)">
<path id="Vector" d="M18.0188 3.23122C17.5421 2.77655 16.9087 2.52289 16.25 2.52289C15.5913 2.52289 14.9579 2.77655 14.4813 3.23122L0.212524 17.5H5.99377C6.82098 17.4998 7.61436 17.1717 8.20002 16.5875L18.0188 6.76872C18.2512 6.53654 18.4356 6.26082 18.5614 5.95732C18.6872 5.65383 18.752 5.32851 18.752 4.99997C18.752 4.67143 18.6872 4.34612 18.5614 4.04262C18.4356 3.73913 18.2512 3.46341 18.0188 3.23122ZM7.68127 11.8L8.98752 10.4937L10.7563 12.2625L9.45002 13.5687L7.68127 11.8ZM7.31877 15.7C6.96748 16.0517 6.49089 16.2495 5.99377 16.25H3.23127L6.80002 12.6812L8.56877 14.45L7.31877 15.7ZM17.1313 5.88122L11.6375 11.3812L9.86877 9.61247L15.3688 4.11872C15.603 3.88591 15.9198 3.75523 16.25 3.75523C16.5803 3.75523 16.8971 3.88591 17.1313 4.11872C17.3641 4.35293 17.4948 4.66974 17.4948 4.99997C17.4948 5.3302 17.3641 5.64702 17.1313 5.88122Z" fill="#0F75BC"/>
</g>
<defs>
<clipPath id="clip0_1338_6067">
<rect width="20" height="20" fill="white"/>
</clipPath>
</defs>
</svg>
